<svg width="58" height="15" viewBox="0 0 58 15" fill="none" xmlns="http://www.w3.org/2000/svg">
<path d="M0.383333 14V0.999999H2.71667V12.1167H8.5V14H0.383333ZM18.3089 14.2333C16.9644 14.2333 15.8422 13.9611 14.9422 13.4167C14.0533 12.8611 13.3866 12.0778 12.9422 11.0667C12.5089 10.0556 12.2922 8.86667 12.2922 7.5C12.2922 6.12222 12.5089 4.93333 12.9422 3.93333C13.3866 2.92222 14.0533 2.14444 14.9422 1.6C15.8422 1.04444 16.9644 0.766666 18.3089 0.766666C19.6755 0.766666 20.8033 1.04444 21.6922 1.6C22.5811 2.14444 23.2422 2.92222 23.6755 3.93333C24.12 4.93333 24.3422 6.12222 24.3422 7.5C24.3422 8.86667 24.12 10.0556 23.6755 11.0667C23.2422 12.0778 22.5811 12.8611 21.6922 13.4167C20.8033 13.9611 19.6755 14.2333 18.3089 14.2333ZM18.3089 12.4333C19.5533 12.4333 20.47 12.0056 21.0589 11.15C21.6477 10.2833 21.9422 9.06667 21.9422 7.5C21.9422 5.93333 21.6477 4.72222 21.0589 3.86667C20.47 3 19.5533 2.56667 18.3089 2.56667C17.0755 2.56667 16.1644 3 15.5755 3.86667C14.9866 4.72222 14.6922 5.93333 14.6922 7.5C14.6922 9.06667 14.9866 10.2833 15.5755 11.15C16.1644 12.0056 17.0755 12.4333 18.3089 12.4333ZM34.351 14.2333C33.1399 14.2333 32.1177 13.95 31.2844 13.3833C30.451 12.8167 29.8177 12.0222 29.3844 11C28.951 9.97778 28.7344 8.8 28.7344 7.46667C28.7344 6.11111 28.951 4.93333 29.3844 3.93333C29.8288 2.92222 30.4899 2.14444 31.3677 1.6C32.2566 1.04444 33.3566 0.766666 34.6677 0.766666C35.7566 0.766666 36.6788 0.955555 37.4344 1.33333C38.1899 1.71111 38.7844 2.24444 39.2177 2.93333C39.651 3.61111 39.9288 4.41111 40.051 5.33333H37.7844C37.651 4.44444 37.3177 3.76111 36.7844 3.28333C36.251 2.80556 35.5288 2.56667 34.6177 2.56667C33.4177 2.56667 32.5288 3 31.951 3.86667C31.3733 4.73333 31.0844 5.93333 31.0844 7.46667C31.0844 9.05556 31.3899 10.2889 32.001 11.1667C32.6122 12.0333 33.5066 12.4667 34.6844 12.4667C35.6733 12.4667 36.4399 12.1778 36.9844 11.6C37.5399 11.0111 37.8455 10.2056 37.901 9.18333H33.951V7.41667H40.0677V14H38.301V12.45H37.901C37.6677 12.9278 37.2733 13.3444 36.7177 13.7C36.1733 14.0556 35.3844 14.2333 34.351 14.2333ZM51.037 14.2333C49.6925 14.2333 48.5703 13.9611 47.6703 13.4167C46.7814 12.8611 46.1148 12.0778 45.6703 11.0667C45.237 10.0556 45.0203 8.86667 45.0203 7.5C45.0203 6.12222 45.237 4.93333 45.6703 3.93333C46.1148 2.92222 46.7814 2.14444 47.6703 1.6C48.5703 1.04444 49.6925 0.766666 51.037 0.766666C52.4036 0.766666 53.5314 1.04444 54.4203 1.6C55.3092 2.14444 55.9703 2.92222 56.4036 3.93333C56.8481 4.93333 57.0703 6.12222 57.0703 7.5C57.0703 8.86667 56.8481 10.0556 56.4036 11.0667C55.9703 12.0778 55.3092 12.8611 54.4203 13.4167C53.5314 13.9611 52.4036 14.2333 51.037 14.2333ZM51.037 12.4333C52.2814 12.4333 53.1981 12.0056 53.787 11.15C54.3759 10.2833 54.6703 9.06667 54.6703 7.5C54.6703 5.93333 54.3759 4.72222 53.787 3.86667C53.1981 3 52.2814 2.56667 51.037 2.56667C49.8036 2.56667 48.8925 3 48.3036 3.86667C47.7148 4.72222 47.4203 5.93333 47.4203 7.5C47.4203 9.06667 47.7148 10.2833 48.3036 11.15C48.8925 12.0056 49.8036 12.4333 51.037 12.4333Z" fill="white"/>
</svg>
